<?xml version="1.0" encoding="UTF-8" standalone="no"?>
<!DOCTYPE svg PUBLIC "-//W3C//DTD SVG 1.1//EN" "http://www.w3.org/Graphics/SVG/1.1/DTD/svg11.dtd">
<svg width="100%" height="100%" viewBox="0 0 128 128" version="1.1" xmlns="http://www.w3.org/2000/svg" xmlns:xlink="http://www.w3.org/1999/xlink" xml:space="preserve" xmlns:serif="http://www.serif.com/" style="fill-rule:evenodd;clip-rule:evenodd;stroke-linecap:round;stroke-linejoin:round;stroke-miterlimit:1.5;">
    <g transform="matrix(1.142857,0,0,1.142857,-9.142857,-9.142857)">
        <circle cx="64" cy="64" r="56" style="fill:rgb(0,111,255);"/>
        <path d="M64,8C94.907,8 120,33.093 120,64C120,94.907 94.907,120 64,120C33.093,120 8,94.907 8,64C8,33.093 33.093,8 64,8ZM64,22.583C41.142,22.583 22.583,41.142 22.583,64C22.583,86.858 41.142,105.417 64,105.417C86.858,105.417 105.417,86.858 105.417,64C105.417,41.142 86.858,22.583 64,22.583Z" style="fill:rgb(0,133,255);"/>
    </g>
    <g transform="matrix(1.142857,0,0,1.142857,-9.142857,-9.142857)">
        <circle cx="64" cy="64" r="56" style="fill:rgb(0,111,255);fill-opacity:0;"/>
        <path d="M64,8C94.907,8 120,33.093 120,64C120,94.907 94.907,120 64,120C33.093,120 8,94.907 8,64C8,33.093 33.093,8 64,8ZM64,15.292C37.117,15.292 15.292,37.117 15.292,64C15.292,90.883 37.117,112.708 64,112.708C90.883,112.708 112.708,90.883 112.708,64C112.708,37.117 90.883,15.292 64,15.292Z" style="fill:rgb(46,189,255);"/>
    </g>
    <g transform="matrix(1,0,0,1.423913,0,-18.205018)">
        <path d="M9.859,42.945L58.486,35.258L97.922,40" style="fill:rgb(68,255,0);fill-opacity:0;"/>
        <path d="M97.922,40C91.699,40.301 85.491,40.737 79.268,41.038C73.657,41.309 65.018,40.496 63.788,40.38C62.073,40.219 60.384,39.808 58.655,39.844C57.217,39.873 55.87,40.355 54.466,40.573C51.363,41.054 48.251,41.506 45.134,41.939C36.15,43.186 30.462,43.252 29.176,43.267C19.511,43.379 19.516,43.226 9.859,42.945C13.472,41.717 16.987,40.351 20.6,39.123C21.526,38.808 27.081,36.921 32.389,35.518C37.801,34.088 44.006,32.996 45.031,32.816C46.056,32.635 56.375,30.819 57.901,30.765C58.626,30.74 59.427,30.842 59.558,30.859C60.837,31.023 68.936,32.059 75.359,33.521C76.656,33.816 77.957,34.108 79.219,34.471C85.48,36.268 91.661,38.202 97.922,40Z" style="fill:rgb(25,255,0);"/>
    </g>
    <path d="M26.516,109.024C23.647,108.835 35.645,88 35.645,88C35.645,88 56.576,69.365 64,64C69.921,59.721 78.675,75.864 85.503,80C96.407,86.604 117.085,91.645 117.085,91.645L46.432,78.537" style="fill:rgb(0,255,20);"/>
    <path d="M37.668,90.08C35.79,92.617 29.85,100.738 27.346,105.46C25.633,108.691 26.231,108.939 26.516,109.024C26.064,108.98 25.078,108.658 27.647,100.913C29.718,94.67 33.068,86.713 33.148,86.57C33.359,86.194 33.368,86.201 36.818,82.491C44.342,74.398 50.313,68.005 58.007,61.272C60.689,58.925 62.789,57.307 66.248,57.294C75.139,57.26 82.187,69.201 87.935,73.861C89.978,75.517 99.56,80.126 114.543,84.451C118.746,85.664 119.536,85.827 120.501,86.492C120.837,86.723 122.812,88.084 123.122,90.861C123.166,91.258 123.427,93.596 121.538,95.606C121.27,95.891 119.691,97.57 117.014,97.462C116.791,97.453 116.318,97.375 115.682,97.25L115.588,97.683C111.77,96.799 107.64,95.681 103.618,94.444C97.753,92.997 95.714,92.432 94.975,92.226C72.592,86.017 70.875,85.352 51.76,80.019L37.668,90.08ZM77.175,81.363C76.503,80.678 75.804,79.923 75.036,79.072C70.938,74.526 68.893,71.656 66.225,69.646C62.178,72.459 59.891,74.216 58.719,75.05L52.966,79.158C61.034,79.914 69.105,80.632 77.175,81.363ZM67.436,68.808C67.437,68.809 67.438,68.81 67.439,68.811C67.445,68.82 67.455,68.803 67.464,68.789C67.455,68.795 67.446,68.802 67.436,68.808Z" style="fill:rgb(0,255,55);"/>
    <path d="M8,64L64,50.872L120,53.379L120,45.525" style="fill:rgb(0,111,255);fill-opacity:0;"/>
    <path d="M118.825,51.597L120,45.525C120.52,48.215 120.925,50.925 121.445,53.614C121.45,53.641 122.2,54.578 121.355,55.894C121.003,56.442 120.019,56.941 119.84,56.962C113.511,57.688 107.146,57.992 106.04,58.045C97.527,58.452 87.254,58.183 85.621,58.14C80.205,57.998 74.789,57.82 69.375,57.619C67.783,57.56 66.184,57.162 64.604,57.361C61.557,57.746 58.613,58.721 55.609,59.359C43.153,62.005 35.669,62.601 33.919,62.741C21.122,63.76 21.113,63.55 8.281,63.994C8.187,63.997 8.015,64.093 8,64C7.999,63.996 22.155,57.696 22.387,57.597C34.275,52.51 41.432,50.303 43.126,49.781C50.664,47.456 60.969,44.982 62.531,44.607C63.418,44.394 64.148,44.402 64.29,44.404C67.256,44.435 78.849,45.209 80.115,45.294C81.91,45.414 94.045,46.225 102.439,47.984C107.913,49.131 113.355,50.429 118.825,51.597Z" style="fill:rgb(176,255,249);fill-opacity:0.09;"/>
    <path d="M26.516,104L58.766,120L96,110.361L112,94.374" style="fill:rgb(0,111,255);fill-opacity:0;"/>
    <path d="M112,94.374C105.527,104.097 104.036,103.175 99.096,113.757C99.01,113.942 98.42,115.204 97.365,115.634C95.18,116.524 89.857,118.176 89.199,118.38C87.74,118.833 81.103,120.894 70.829,123.591C69.92,123.83 60.328,126.348 59.406,126.312C57.628,126.241 57.208,126.021 56.096,125.383C52.761,123.469 52.737,123.512 49.521,121.407C44.032,117.815 38.347,113.425 37.402,112.695C31.886,108.435 31.96,108.348 26.516,104C30.411,104.896 34.343,105.626 38.239,106.522C39.479,106.807 47.817,108.725 53.535,110.9C59.062,113.001 58.943,113.347 59.455,113.376C60.21,113.418 60.894,112.909 61.622,112.703C70.729,110.13 70.719,110.094 79.95,108.015C86.164,106.615 90.969,106.064 91.935,105.953C92.426,105.897 92.958,106.026 93.413,105.833C94.133,105.527 94.681,104.915 95.347,104.504C100.878,101.094 106.469,97.784 112,94.374Z" style="fill:rgb(176,255,249);fill-opacity:0.09;"/>
    <path d="M40,32C40,32 75.056,13.255 80,14.167C84.944,15.079 96,37.473 96,37.473L52.5,32" style="fill:rgb(25,255,0);stroke:rgb(25,255,0);stroke-width:1px;"/>
    <path d="M114.131,64C114.131,64 95.279,56.891 76.198,58.674C67.894,59.449 50.459,68.732 41.38,72C31.796,75.45 13.347,72 13.347,72" style="fill:rgb(0,111,255);fill-opacity:0;"/>
    <path d="M109.553,76.27C109.601,76.273 109.51,76.194 109.481,76.162C109.176,75.833 107.511,74.279 105.251,72.737C102.579,70.915 100.249,69.562 99.786,69.289C99.663,69.217 96.774,67.71 95.356,67.132C92.124,65.815 90.985,65.474 88.035,64.773C85.406,64.148 82.886,64.234 82.436,64.25C80.487,64.316 79.205,64.526 77.197,65.027C72.596,66.174 61.635,75.08 59.086,76.911C58.725,77.171 55.547,79.454 54.525,80.08C50.553,82.509 50.494,82.483 50.185,82.612C45.557,84.54 38.496,87.962 19.846,86.1C14.742,85.591 10.937,84.878 10.929,84.875C9.321,84.246 7.574,83.872 6.129,82.926C5.468,82.494 1.662,80.003 0.551,74.782C0.465,74.376 -0.024,72.077 0.47,69.592C1.534,64.246 5.29,61.673 5.951,61.221C7.334,60.274 8.924,59.568 10.563,59.216C14.07,58.464 14.102,58.9 17.65,59.431C24.908,60.517 33.529,60.95 37.269,59.555C39.664,58.661 39.607,58.508 41.093,58.125C43.755,57.439 43.731,57.356 45.658,56.924C51.694,55.568 51.689,55.561 57.78,54.458C58.705,54.291 64.353,53.268 69.393,52.66C70.936,52.474 74.436,52.195 75.584,52.222C78.115,52.28 81.122,52.682 87.107,52.523C90.065,52.444 90.057,52.347 93.016,52.277C93.506,52.265 95.063,52.107 97.815,52.02C98.906,51.985 99.977,51.867 102.729,51.783C104.655,51.724 107.309,51.467 112.319,51.533C112.485,51.536 116.405,51.471 118.348,51.68C118.791,51.727 120.379,51.898 123.148,54.504C127.035,58.163 127.189,62.709 127.216,63.498C127.403,68.999 124.198,72.388 123.642,72.976C119.994,76.835 115.437,77.014 114.648,77.045C112.383,77.134 110.016,76.415 109.553,76.27ZM109.553,76.27C109.544,76.269 109.529,76.265 109.508,76.258C109.446,76.235 109.465,76.242 109.553,76.27Z" style="fill:white;"/>
</svg>
