<?xml version="1.0" encoding="UTF-8" standalone="no"?>
<!DOCTYPE svg PUBLIC "-//W3C//DTD SVG 1.1//EN" "http://www.w3.org/Graphics/SVG/1.1/DTD/svg11.dtd">
<svg width="100%" height="100%" viewBox="0 0 128 128" version="1.1" xmlns="http://www.w3.org/2000/svg" xmlns:xlink="http://www.w3.org/1999/xlink" xml:space="preserve" xmlns:serif="http://www.serif.com/" style="fill-rule:evenodd;clip-rule:evenodd;stroke-linecap:round;stroke-linejoin:round;stroke-miterlimit:1.5;">
    <g transform="matrix(1.142857,0,0,1.142857,-9.142857,-9.142857)">
        <circle cx="64" cy="64" r="56" style="fill:rgb(47,32,24);"/>
        <path d="M64,8C94.907,8 120,33.093 120,64C120,94.907 94.907,120 64,120C33.093,120 8,94.907 8,64C8,33.093 33.093,8 64,8ZM64,22.583C41.142,22.583 22.583,41.142 22.583,64C22.583,86.858 41.142,105.417 64,105.417C86.858,105.417 105.417,86.858 105.417,64C105.417,41.142 86.858,22.583 64,22.583Z" style="fill:rgb(92,54,32);"/>
    </g>
    <g transform="matrix(1,0,0,1,1.5,59.686453)">
        <path d="M10.5,40C11.833,42.167 14.833,48 43.5,51.167C72.167,54.333 89,50.167 100.667,48C112.333,45.833 112.5,36.833 112,35.667" style="fill:rgb(255,194,160);fill-opacity:0.26;"/>
    </g>
    <g transform="matrix(0.989328,-0.145704,0.189467,1.286479,-7.824726,-7.814236)">
        <path d="M10.5,40C11.833,42.167 14.833,48 43.5,51.167C72.167,54.333 89,50.167 100.667,48C112.333,45.833 112.5,36.833 112,35.667" style="fill:rgb(255,151,93);fill-opacity:0.26;stroke:rgb(255,202,161);stroke-opacity:0;stroke-width:0.86px;"/>
    </g>
    <path d="M5.833,77L60.191,53.167L122.167,64" style="fill:rgb(255,185,146);fill-opacity:0;"/>
    <path d="M133.899,66.061C132.081,67.456 131.251,69.892 129.433,71.287C128.299,72.158 126.765,72.376 125.355,72.618C123.805,72.884 122.207,72.923 120.639,72.796C108.574,71.818 96.548,70.398 84.492,69.307C80.933,68.985 77.365,68.782 73.799,68.558C70.001,68.32 66.2,68.135 62.401,67.921C62.256,67.913 62.097,67.825 61.968,67.891C60.314,68.734 58.741,69.724 57.113,70.616C55.968,71.244 48.063,75.575 42.444,77.797C38.286,79.441 34.27,80.407 33.545,80.581C30.307,81.36 27.056,82.084 23.792,82.74C19.52,83.598 10.813,84.96 9.682,85.137C5.688,85.762 2.753,84.616 2.192,84.397C-0.632,83.295 -0.469,82.977 -2.339,80.594C-2.345,80.588 -2.826,77.751 -2.826,77.731C-2.704,74.521 -0.705,71.893 -0.379,71.464C0.823,69.884 2.228,68.836 2.486,68.643C4.129,67.417 5.757,66.17 7.417,64.967C10.175,62.97 12.925,60.959 15.741,59.043C24.8,52.878 29.297,50.386 30.52,49.708C32.068,48.851 33.633,48.022 35.231,47.262C39.701,45.133 45.627,42.9 46.545,42.555C47.796,42.083 54.067,39.866 54.326,39.791C56.367,39.205 56.375,39.221 58.49,39.071C58.523,39.069 60.51,39.191 60.561,39.199C61.234,39.299 61.9,39.454 62.557,39.63C65.563,40.435 68.546,41.321 71.548,42.139C119.298,55.153 119.717,53.616 123.714,55.208C125.15,55.779 126.677,56.162 128.021,56.924C129.247,57.619 130.599,58.34 131.346,59.535C132.565,61.485 132.488,64.067 133.707,66.017L133.899,66.061Z" style="fill:rgb(255,200,158);fill-opacity:0.16;"/>
    <path d="M5.833,54.333L53,65.083L85.333,56L123.833,65.083" style="fill:rgb(255,185,146);fill-opacity:0;"/>
    <path d="M135.581,67.865C133.672,69.139 132.683,71.52 130.774,72.795C129.572,73.597 128.012,73.719 126.575,73.876C124.99,74.049 123.372,73.992 121.793,73.774C110.129,72.166 98.52,70.182 86.882,68.402C82.377,67.713 82.639,69.317 75.855,71.977C71.923,73.519 68.014,75.12 64.086,76.67C63.522,76.893 57.944,79.094 57.015,79.374C56.222,79.612 55.431,79.87 54.617,80.016C53.793,80.164 52.955,80.258 52.118,80.255C50.387,80.247 46.393,79.397 45.901,79.292C43.98,78.883 42.057,78.479 40.157,77.983C35.011,76.64 30.515,74.871 29.695,74.549C26.067,73.122 22.458,71.645 18.881,70.095C15.768,68.745 12.701,67.289 9.628,65.849C7.779,64.981 5.953,64.064 4.116,63.17C0.481,61.403 -1.2,58.728 -1.52,58.22C-3.161,55.609 -2.809,55.442 -2.874,52.359C-2.874,52.35 -1.594,49.874 -1.581,49.858C0.412,47.413 3.599,46.435 4.114,46.277C5.309,45.91 6.563,45.742 7.807,45.629C9.691,45.457 11.587,45.469 13.477,45.425C16.41,45.357 19.343,45.272 22.277,45.294C31.701,45.361 35.788,45.825 36.956,45.958C38.427,46.125 39.896,46.326 41.351,46.602C42.991,46.912 44.614,47.307 46.233,47.715C47.988,48.156 49.728,48.658 51.47,49.146C51.854,49.254 52.215,49.543 52.612,49.503C53.49,49.415 53.447,49.177 63.448,47.447C67.583,46.731 71.727,46.064 75.862,45.346C82.454,44.202 82.442,44.054 84.072,44.075C84.39,44.079 85.836,44.098 87.987,44.753C91.021,45.678 125.31,56.123 125.893,56.397C127.274,57.044 128.757,57.508 130.034,58.341C131.202,59.102 132.492,59.9 133.152,61.128C134.237,63.15 133.994,65.715 135.08,67.737L135.581,67.865Z" style="fill:rgb(107,47,0);fill-opacity:0.16;"/>
    <g transform="matrix(1,0,0,1,0,-15.67656)">
        <path d="M16,100.667L68.333,98.333L110.24,103.677" style="fill:rgb(255,185,146);fill-opacity:0;"/>
        <path d="M121.882,105.161C121.814,105.699 121.475,108.352 117.724,110.518C117.111,110.871 114.121,112.597 109.121,112.533C99.415,112.409 89.718,111.864 80.014,111.632C78.633,111.6 68.025,111.656 67.784,111.686C65.776,111.932 63.809,112.437 61.818,112.791C56.027,113.822 53.167,114.166 52.411,114.257C51.729,114.339 47.301,114.871 43.846,114.871C40.133,114.871 36.754,114.294 36.144,114.19C33.416,113.724 30.695,113.205 27.992,112.612C24.348,111.813 17.512,109.9 16.606,109.646C12.717,108.558 10.375,106.416 9.926,106.005C7.778,104.04 7.982,103.842 7.081,101.074C7.078,101.066 7.661,98.494 7.67,98.474C8.948,95.697 11.764,93.81 12.211,93.51C12.479,93.33 13.922,92.362 15.81,91.669C17.246,91.141 18.672,90.588 20.118,90.089C22.522,89.258 24.923,88.414 27.358,87.68C35.168,85.327 38.963,84.676 39.99,84.5C41.28,84.279 42.577,84.091 43.881,83.977C49.186,83.516 56.636,83.977 57.743,84.046C60.073,84.19 68.487,84.919 68.883,84.981C70.125,85.174 71.31,85.636 72.528,85.946C91.836,90.862 91.915,90.505 111.369,94.82C116.116,95.873 118.7,98.415 119.204,98.91C122.292,101.948 121.951,104.621 121.882,105.161Z" style="fill:rgb(66,17,0);fill-opacity:0.16;"/>
    </g>
    <g transform="matrix(1,0,0,1,2.166667,8)">
        <path d="M14.5,32L52,10.167L101.833,20.333" style="fill:rgb(255,185,146);fill-opacity:0;"/>
        <path d="M113.588,22.742C111.746,24.047 110.821,26.399 108.979,27.704C107.801,28.539 106.257,28.726 104.831,28.947C103.258,29.189 101.645,29.208 100.059,29.082C91.046,28.366 82.071,27.233 73.067,26.421C67.714,25.938 67.707,26.083 56.848,25.601C56.07,25.566 55.267,25.259 54.516,25.465C54.033,25.597 54.229,25.904 49.506,29.206C49.004,29.556 45.69,31.873 43.016,33.253C40.191,34.711 37.295,35.55 36.78,35.699C34.446,36.376 32.095,36.997 29.73,37.56C26.761,38.267 20.038,39.522 19.192,39.679C15.185,40.427 12.143,39.624 11.552,39.468C8.778,38.736 8.854,38.488 6.789,36.501C6.783,36.495 6.059,33.865 6.057,33.844C5.867,30.734 7.511,27.808 7.775,27.339C8.768,25.572 9.953,24.338 10.177,24.106C11.344,22.89 12.493,21.656 13.682,20.461C15.651,18.479 17.611,16.485 19.65,14.575C26.195,8.44 29.544,5.94 30.458,5.257C31.61,4.397 32.784,3.563 33.998,2.792C36.889,0.957 42,-1.649 42.709,-2.011C44.681,-3.016 46.164,-3.502 46.475,-3.604C46.577,-3.638 48.472,-4.026 48.587,-4.037C50.463,-4.215 50.466,-4.161 52.339,-3.957C53.586,-3.821 53.567,-3.742 54.759,-3.356C57.289,-2.536 59.793,-1.64 62.32,-0.81C82.277,5.747 82.394,5.355 103.618,11.585C105.869,12.246 105.878,12.255 107.873,13.485C109.075,14.226 110.399,14.993 111.119,16.209C112.278,18.168 112.153,20.716 113.312,22.675L113.588,22.742Z" style="fill:rgb(170,49,0);fill-opacity:0.16;"/>
    </g>
    <g transform="matrix(1.142857,0,0,1.142857,-9.142857,-9.142857)">
        <circle cx="64" cy="64" r="56" style="fill:rgb(166,127,105);fill-opacity:0;"/>
        <path d="M64,8C94.907,8 120,33.093 120,64C120,94.907 94.907,120 64,120C33.093,120 8,94.907 8,64C8,33.093 33.093,8 64,8ZM64,15.292C37.117,15.292 15.292,37.117 15.292,64C15.292,90.883 37.117,112.708 64,112.708C90.883,112.708 112.708,90.883 112.708,64C112.708,37.117 90.883,15.292 64,15.292Z" style="fill:rgb(181,108,65);"/>
    </g>
</svg>
