<?xml version="1.0" encoding="UTF-8" standalone="no"?>
<!DOCTYPE svg PUBLIC "-//W3C//DTD SVG 1.1//EN" "http://www.w3.org/Graphics/SVG/1.1/DTD/svg11.dtd">
<svg width="100%" height="100%" viewBox="0 0 128 128" version="1.1" xmlns="http://www.w3.org/2000/svg" xmlns:xlink="http://www.w3.org/1999/xlink" xml:space="preserve" xmlns:serif="http://www.serif.com/" style="fill-rule:evenodd;clip-rule:evenodd;stroke-linejoin:round;stroke-miterlimit:2;">
    <g transform="matrix(1.142857,0,0,1.142857,-9.142857,-9.142857)">
        <circle cx="64" cy="64" r="56" style="fill:rgb(69,69,69);"/>
        <path d="M64,8C94.907,8 120,33.093 120,64C120,94.907 94.907,120 64,120C33.093,120 8,94.907 8,64C8,33.093 33.093,8 64,8ZM64,22.583C41.142,22.583 22.583,41.142 22.583,64C22.583,86.858 41.142,105.417 64,105.417C86.858,105.417 105.417,86.858 105.417,64C105.417,41.142 86.858,22.583 64,22.583Z" style="fill:rgb(101,101,101);"/>
    </g>
    <g transform="matrix(1.142857,0,0,1.142857,-9.142857,-9.142857)">
        <circle cx="64" cy="64" r="56" style="fill:rgb(165,165,165);fill-opacity:0;"/>
        <path d="M64,8C94.907,8 120,33.093 120,64C120,94.907 94.907,120 64,120C33.093,120 8,94.907 8,64C8,33.093 33.093,8 64,8ZM64,15.292C37.117,15.292 15.292,37.117 15.292,64C15.292,90.883 37.117,112.708 64,112.708C90.883,112.708 112.708,90.883 112.708,64C112.708,37.117 90.883,15.292 64,15.292Z" style="fill:rgb(166,166,166);"/>
    </g>
    <path d="M9.5,85.833L37.833,56L64.539,54.667L72,26.667" style="fill:white;fill-opacity:0;"/>
    <path d="M74.773,16.26C76.592,18.317 79.489,19.218 81.308,21.275C82.221,22.307 82.478,23.815 82.662,25.18C82.852,26.586 82.697,28.04 82.409,29.43C81.667,33.011 80.526,36.497 79.585,40.03C79.366,40.851 79.31,41.734 78.928,42.494C76.933,46.468 74.611,50.269 72.484,54.174C72.073,54.929 71.751,55.731 71.315,56.472C70.568,57.739 69.147,58.491 68.92,58.612C68.755,58.699 68.57,58.742 68.399,58.818C67.807,59.079 67.823,59.121 67.19,59.269C67.124,59.284 67.123,59.277 66.349,59.403C65.42,59.555 65.418,59.494 64.929,59.504C64.88,59.505 64.832,59.528 64.782,59.532C62.955,59.695 62.95,59.625 61.138,59.921C59.654,60.164 58.166,60.39 56.699,60.721C53.627,61.415 50.573,62.187 47.529,62.996C45.611,63.506 43.554,63.716 41.819,64.678C41.087,65.084 40.996,66.136 40.568,66.855C39.531,68.6 38.611,70.424 37.424,72.07L17.302,93.257C16.14,94.071 15.111,95.123 13.813,95.697C9.8,97.472 6.307,96.138 5.701,95.906C5.076,95.667 1.469,94.289 -0.363,90.147C-2.139,86.133 -0.804,82.641 -0.573,82.034C-0.066,80.709 0.735,79.48 1.684,78.424C3.366,76.552 3.416,76.601 23.343,55.618C27.224,51.532 27.105,51.322 32.009,48.551C33.008,47.987 34.582,47.856 34.813,47.837C35.261,47.8 35.713,47.802 36.161,47.838C36.59,47.873 37.013,47.968 37.436,48.05C38.063,48.171 38.681,48.339 39.311,48.446C45.671,49.528 45.644,49.739 52.078,50.204C52.949,50.267 55.473,50.268 55.647,50.242C57.189,50.015 58.693,49.572 60.235,49.345C60.134,46.66 60.392,43.971 60.291,41.286C60.168,38.019 59.665,34.773 59.565,31.505C59.55,31.01 59.82,30.548 59.948,30.069L61.596,23.884C62.236,22.581 62.642,21.133 63.517,19.975C64.361,18.857 65.334,17.645 66.656,17.182C69.257,16.271 72.239,16.92 74.84,16.009L74.773,16.26Z" style="fill:rgb(158,158,158);fill-opacity:0.07;"/>
    <g transform="matrix(1,0,0,1,43.333333,26.166667)">
        <path d="M9.5,85.833L37.833,56L64.539,54.667L72,26.667" style="fill:white;fill-opacity:0;"/>
        <path d="M74.773,16.26C76.592,18.317 79.489,19.218 81.308,21.275C82.221,22.307 82.478,23.815 82.662,25.18C82.852,26.586 82.697,28.04 82.409,29.43C81.667,33.011 80.526,36.497 79.585,40.03C79.366,40.851 79.31,41.734 78.928,42.494C76.933,46.468 74.611,50.269 72.484,54.174C72.073,54.929 71.751,55.731 71.315,56.472C70.568,57.739 69.147,58.491 68.92,58.612C68.755,58.699 68.57,58.742 68.399,58.818C67.807,59.079 67.823,59.121 67.19,59.269C67.124,59.284 67.123,59.277 66.349,59.403C65.42,59.555 65.418,59.494 64.929,59.504C64.88,59.505 64.832,59.528 64.782,59.532C62.955,59.695 62.95,59.625 61.138,59.921C59.654,60.164 58.166,60.39 56.699,60.721C53.627,61.415 50.573,62.187 47.529,62.996C45.611,63.506 43.554,63.716 41.819,64.678C41.087,65.084 40.996,66.136 40.568,66.855C39.531,68.6 38.611,70.424 37.424,72.07C36.696,73.079 35.712,73.873 34.856,74.774L17.309,93.25C16.855,93.728 14.25,96.471 9.777,96.586C8.4,96.622 6.988,96.398 5.701,95.906C1.469,94.289 -0.093,90.758 -0.363,90.147C-2.139,86.133 -0.804,82.641 -0.573,82.034C-0.066,80.709 0.735,79.48 1.684,78.424C7.608,71.831 13.892,65.569 19.997,59.142L26.512,52.281C27.827,51.154 29.312,50.24 30.745,49.268C33.205,47.598 35.714,47.802 36.161,47.838C36.59,47.873 37.013,47.968 37.436,48.05C38.063,48.171 38.681,48.339 39.311,48.446C45.671,49.528 45.644,49.739 52.078,50.204C52.949,50.267 55.473,50.268 55.647,50.242C57.189,50.015 58.693,49.572 60.235,49.345C60.134,46.66 60.392,43.971 60.291,41.286C60.168,38.019 59.665,34.773 59.565,31.505L61.596,23.884C62.236,22.581 62.642,21.133 63.517,19.975C64.361,18.857 65.334,17.645 66.656,17.182C69.257,16.271 72.239,16.92 74.84,16.009L74.773,16.26Z" style="fill:rgb(161,161,161);fill-opacity:0.07;"/>
    </g>
    <g transform="matrix(1,0,0,1,15.25,-3.416667)">
        <path d="M9.5,85.833L8.75,49.5L21.206,27.417L72,26.667" style="fill:white;fill-opacity:0;"/>
        <path d="M24.825,33.509C23.645,37.936 22.338,42.328 21.158,46.755C20.751,48.279 20.504,49.844 20.066,51.359C19.974,51.677 19.614,51.895 19.578,52.224C19.469,53.225 19.62,54.237 19.641,55.243L20.267,85.611C20.281,86.27 20.359,90.053 17.262,93.281C16.308,94.275 15.146,95.109 13.886,95.665C9.741,97.492 6.147,96.082 5.524,95.837C1.439,94.234 -0.07,90.813 -0.332,90.219C-0.904,88.92 -1.203,87.483 -1.267,86.066C-1.724,76.002 -1.683,65.922 -1.891,55.85L-2.017,49.722C-1.961,47.563 -1.961,47.548 -1.251,45.505C-1.054,44.937 4.115,38.235 4.595,37.613C7.298,34.109 10.065,30.654 12.776,27.156C13.582,26.115 14.306,25.011 15.146,23.999C15.812,23.197 16.896,22.681 17.067,22.599C17.906,22.2 18.997,22.065 19.17,22.044C19.272,22.032 19.376,22.053 19.48,22.049C19.711,22.04 19.942,21.996 20.174,22.006C20.408,22.016 20.397,22.112 23.085,22.31C23.443,22.336 26.042,22.527 27.568,22.46C31.456,22.287 34.647,21.645 35.255,21.523C38.288,20.913 41.311,20.248 44.319,19.524C48.814,18.442 53.242,17.077 57.762,16.106C58.628,15.92 59.533,16.08 60.419,16.067L71.851,15.898C73.246,16.16 74.717,16.16 76.035,16.686C77.314,17.197 78.714,17.813 79.493,18.949C81.046,21.214 81.216,24.243 82.769,26.508L82.84,26.517C81.347,28.821 81.261,31.855 79.768,34.159C79.015,35.32 77.626,35.976 76.355,36.523C75.044,37.089 73.593,37.322 72.169,37.435L61.136,37.598C57.263,36.737 53.485,35.489 49.631,34.548C42.176,32.728 38.735,32.362 37.774,32.26C35.248,31.991 33.309,32.134 32.922,32.163C32.291,32.21 31.658,32.247 31.034,32.351C28.957,32.696 26.902,33.164 24.825,33.509Z" style="fill:rgb(140,140,140);fill-opacity:0.07;"/>
    </g>
</svg>
