<?xml version="1.0" encoding="UTF-8" standalone="no"?>
<!DOCTYPE svg PUBLIC "-//W3C//DTD SVG 1.1//EN" "http://www.w3.org/Graphics/SVG/1.1/DTD/svg11.dtd">
<svg width="100%" height="100%" viewBox="0 0 128 128" version="1.1" xmlns="http://www.w3.org/2000/svg" xmlns:xlink="http://www.w3.org/1999/xlink" xml:space="preserve" xmlns:serif="http://www.serif.com/" style="fill-rule:evenodd;clip-rule:evenodd;stroke-linejoin:round;stroke-miterlimit:2;">
    <g transform="matrix(1.142857,0,0,1.142857,-9.142857,-9.142857)">
        <circle cx="64" cy="64" r="56" style="fill:rgb(0,111,255);"/>
        <path d="M64,8C94.907,8 120,33.093 120,64C120,94.907 94.907,120 64,120C33.093,120 8,94.907 8,64C8,33.093 33.093,8 64,8ZM64,22.583C41.142,22.583 22.583,41.142 22.583,64C22.583,86.858 41.142,105.417 64,105.417C86.858,105.417 105.417,86.858 105.417,64C105.417,41.142 86.858,22.583 64,22.583Z" style="fill:rgb(0,133,255);"/>
    </g>
    <g transform="matrix(1.142857,0,0,1.142857,-9.142857,-9.142857)">
        <circle cx="64" cy="64" r="56" style="fill:rgb(0,111,255);fill-opacity:0;"/>
        <path d="M64,8C94.907,8 120,33.093 120,64C120,94.907 94.907,120 64,120C33.093,120 8,94.907 8,64C8,33.093 33.093,8 64,8ZM64,15.292C37.117,15.292 15.292,37.117 15.292,64C15.292,90.883 37.117,112.708 64,112.708C90.883,112.708 112.708,90.883 112.708,64C112.708,37.117 90.883,15.292 64,15.292Z" style="fill:rgb(46,189,255);"/>
    </g>
    <path d="M114.131,64C114.131,64 95.279,56.891 76.198,58.674C67.894,59.449 50.459,68.732 41.38,72C31.796,75.45 13.347,72 13.347,72" style="fill:rgb(0,111,255);fill-opacity:0;"/>
    <path d="M109.553,76.27C109.601,76.273 109.51,76.194 109.481,76.162C109.176,75.833 107.511,74.279 105.251,72.737C102.579,70.915 100.249,69.562 99.786,69.289C99.663,69.217 96.774,67.71 95.356,67.132C92.124,65.815 90.985,65.474 88.035,64.773C85.406,64.148 82.886,64.234 82.436,64.25C80.487,64.316 79.205,64.526 77.197,65.027C72.596,66.174 61.635,75.08 59.086,76.911C58.725,77.171 55.547,79.454 54.525,80.08C50.553,82.509 50.494,82.483 50.185,82.612C45.557,84.54 38.496,87.962 19.846,86.1C14.742,85.591 10.937,84.878 10.929,84.875C9.321,84.246 7.574,83.872 6.129,82.926C5.468,82.494 1.662,80.003 0.551,74.782C0.465,74.376 -0.024,72.077 0.47,69.592C1.534,64.246 5.29,61.673 5.951,61.221C7.334,60.274 8.924,59.568 10.563,59.216C14.07,58.464 14.102,58.9 17.65,59.431C24.908,60.517 33.529,60.95 37.269,59.555C39.664,58.661 39.607,58.508 41.093,58.125C43.755,57.439 43.731,57.356 45.658,56.924C51.694,55.568 51.689,55.561 57.78,54.458C58.705,54.291 64.353,53.268 69.393,52.66C70.936,52.474 74.436,52.195 75.584,52.222C78.115,52.28 81.122,52.682 87.107,52.523C90.065,52.444 90.057,52.347 93.016,52.277C93.506,52.265 95.063,52.107 97.815,52.02C98.906,51.985 99.977,51.867 102.729,51.783C104.655,51.724 107.309,51.467 112.319,51.533C112.485,51.536 116.405,51.471 118.348,51.68C118.791,51.727 120.379,51.898 123.148,54.504C127.035,58.163 127.189,62.709 127.216,63.498C127.403,68.999 124.198,72.388 123.642,72.976C119.994,76.835 115.437,77.014 114.648,77.045C112.383,77.134 110.016,76.415 109.553,76.27ZM109.553,76.27C109.544,76.269 109.529,76.265 109.508,76.258C109.446,76.235 109.465,76.242 109.553,76.27Z" style="fill:rgb(46,189,255);fill-opacity:0.35;"/>
    <path d="M9.859,42.945L58.486,35.258L97.922,40" style="fill:rgb(0,111,255);fill-opacity:0;"/>
    <path d="M97.922,40C91.748,40.739 85.598,41.675 79.425,42.414C73.851,43.081 65.121,42.35 63.882,42.246C62.121,42.099 60.372,41.686 58.606,41.728C57.21,41.762 55.863,42.26 54.483,42.472C51.348,42.953 48.207,43.394 45.062,43.807C35.977,45 30.305,44.726 29.021,44.664C19.41,44.199 19.428,43.98 9.859,42.945C13.485,41.448 17.025,39.749 20.65,38.252C21.579,37.869 27.153,35.568 32.444,33.939C37.839,32.278 43.979,31.151 44.994,30.964C46.059,30.769 56.721,28.812 58.367,28.85C59.427,28.875 69.754,30.393 75.58,31.99C76.86,32.341 78.144,32.687 79.393,33.134C85.593,35.357 91.721,37.777 97.922,40Z" style="fill:rgb(176,255,249);fill-opacity:0.58;"/>
    <path d="M26.516,109.024C26.516,109.024 70.408,82.896 85.503,80C98.022,77.598 117.085,91.645 117.085,91.645" style="fill:rgb(0,111,255);fill-opacity:0;"/>
    <path d="M117.085,91.645C115.993,91.2 110.605,89.007 103.024,87.211C102.459,87.078 99.858,86.462 95.891,85.934C94.899,85.802 90.686,85.325 88.13,85.68C85.901,85.99 80.754,87.87 74.298,90.9C72.569,91.712 71.377,92.101 64.287,95.51C63.655,95.814 55.945,99.29 55.4,99.509C47.656,102.624 47.592,102.441 39.671,105.07C38.627,105.417 38.611,105.363 26.503,109.028C34.373,101.463 35.737,100.302 36.578,99.587C43.474,93.721 43.734,93.64 45.486,92.318C51.576,87.719 59.795,83.539 61.096,82.877C67.882,79.426 70.626,78.306 74.217,76.94C83.647,73.352 88.581,72.794 95.989,75.396C96.505,75.578 99.184,76.721 100.933,77.769C107.091,81.459 111.372,85.748 111.77,86.128C114.531,88.756 116.679,91.186 117.085,91.645Z" style="fill:rgb(176,255,249);fill-opacity:0.09;"/>
    <path d="M8,64L64,50.872L120,53.379L120,45.525" style="fill:rgb(0,111,255);fill-opacity:0;"/>
    <path d="M118.825,51.597L120,45.525C120.52,48.215 120.925,50.925 121.445,53.614C121.45,53.641 122.2,54.578 121.355,55.894C121.003,56.442 120.019,56.941 119.84,56.962C113.511,57.688 107.146,57.992 106.04,58.045C97.527,58.452 87.254,58.183 85.621,58.14C80.205,57.998 74.789,57.82 69.375,57.619C67.783,57.56 66.184,57.162 64.604,57.361C61.557,57.746 58.613,58.721 55.609,59.359C43.153,62.005 35.669,62.601 33.919,62.741C20.982,63.771 20.972,63.551 8,64C12.825,61.934 17.561,59.663 22.387,57.597C34.239,52.522 41.432,50.303 43.126,49.781C50.664,47.456 60.969,44.982 62.531,44.607C63.418,44.394 64.148,44.402 64.29,44.404C67.256,44.435 78.849,45.209 80.115,45.294C81.91,45.414 94.045,46.225 102.439,47.984C107.913,49.131 113.355,50.429 118.825,51.597Z" style="fill:rgb(176,255,249);fill-opacity:0.09;"/>
    <path d="M26.516,104L58.766,120L96,110.361L112,94.374" style="fill:rgb(0,111,255);fill-opacity:0;"/>
    <path d="M112,94.374C105.527,104.097 104.036,103.175 99.096,113.757C99.01,113.942 98.42,115.204 97.365,115.634C95.18,116.524 89.857,118.176 89.199,118.38C87.74,118.833 81.103,120.894 70.829,123.591C69.92,123.83 60.328,126.348 59.406,126.312C57.628,126.241 57.208,126.021 56.096,125.383C52.761,123.469 52.737,123.512 49.521,121.407C44.032,117.815 38.347,113.425 37.402,112.695C31.886,108.435 31.96,108.348 26.516,104C30.411,104.896 34.343,105.626 38.239,106.522C39.479,106.807 47.817,108.725 53.535,110.9C59.062,113.001 58.943,113.347 59.455,113.376C60.21,113.418 60.894,112.909 61.622,112.703C70.729,110.13 70.719,110.094 79.95,108.015C86.164,106.615 90.969,106.064 91.935,105.953C92.426,105.897 92.958,106.026 93.413,105.833C94.133,105.527 94.681,104.915 95.347,104.504C100.878,101.094 106.469,97.784 112,94.374Z" style="fill:rgb(176,255,249);fill-opacity:0.09;"/>
</svg>
