<?xml version="1.0" encoding="UTF-8" standalone="no"?>
<!DOCTYPE svg PUBLIC "-//W3C//DTD SVG 1.1//EN" "http://www.w3.org/Graphics/SVG/1.1/DTD/svg11.dtd">
<svg width="100%" height="100%" viewBox="0 0 128 128" version="1.1" xmlns="http://www.w3.org/2000/svg" xmlns:xlink="http://www.w3.org/1999/xlink" xml:space="preserve" xmlns:serif="http://www.serif.com/" style="fill-rule:evenodd;clip-rule:evenodd;stroke-linejoin:round;stroke-miterlimit:2;">
    <g transform="matrix(1.142857,0,0,1.142857,-9.142857,-9.142857)">
        <circle cx="64" cy="64" r="56" style="fill:rgb(171,143,96);"/>
        <path d="M64,8C94.907,8 120,33.093 120,64C120,94.907 94.907,120 64,120C33.093,120 8,94.907 8,64C8,33.093 33.093,8 64,8ZM64,22.583C41.142,22.583 22.583,41.142 22.583,64C22.583,86.858 41.142,105.417 64,105.417C86.858,105.417 105.417,86.858 105.417,64C105.417,41.142 86.858,22.583 64,22.583Z" style="fill:rgb(192,161,96);"/>
    </g>
    <g transform="matrix(1.142857,0,0,1.142857,-9.142857,-9.142857)">
        <circle cx="64" cy="64" r="56" style="fill:rgb(201,203,44);fill-opacity:0;"/>
        <path d="M64,8C94.907,8 120,33.093 120,64C120,94.907 94.907,120 64,120C33.093,120 8,94.907 8,64C8,33.093 33.093,8 64,8ZM64,15.292C37.117,15.292 15.292,37.117 15.292,64C15.292,90.883 37.117,112.708 64,112.708C90.883,112.708 112.708,90.883 112.708,64C112.708,37.117 90.883,15.292 64,15.292Z" style="fill:rgb(255,233,170);fill-opacity:0.42;"/>
    </g>
    <g transform="matrix(0.660124,0.751157,-0.933303,0.820196,82.022861,-37.040565)">
        <ellipse cx="64" cy="64" rx="16" ry="64" style="fill:white;fill-opacity:0;"/>
        <path d="M64,-4.917C66.563,-4.821 71.569,-4.392 75.955,3.287C84.539,18.317 88.063,55.384 85.051,87.104C85.002,87.616 84.378,92.041 83.348,96.355C83.341,96.382 81.483,104.991 77.624,114.055C76.291,117.185 70.263,131.349 62.57,128.898C60.893,128.363 57.969,126.821 55.225,117.95C54.741,116.384 54.786,116.378 54.276,114.814C52.686,109.937 51.394,104.136 50.405,97.763C51.454,104.503 52.847,110.628 54.584,115.736C54.597,115.774 56.061,119.373 57.712,121.855C58.152,122.516 61.788,128.092 64.735,126.609C67.691,125.122 70.999,117.617 72.041,101.085C72.081,100.448 72.31,98.031 72.467,94.003C72.526,92.486 72.655,91.47 72.807,87.069C72.807,87.062 75.798,60.444 71.811,32.719C69.32,15.401 65.35,6.824 62.826,4.723C59.101,6.838 54.234,13.378 54.169,13.519C54.16,13.538 54.151,13.56 54.14,13.587C54.202,13.202 54.06,12.131 54.113,9.769C54.218,5.131 54.948,-3.257 62.839,-4.759C63.268,-4.84 63.266,-4.827 64,-4.917ZM48.068,58.165C47.76,71.846 48.55,85.813 50.405,97.763C48.536,85.757 47.757,71.799 48.068,58.165ZM48.068,58.165C48.336,46.29 49.431,34.629 51.375,24.687C49.442,34.588 48.34,46.253 48.068,58.165ZM54.14,13.587C54.136,13.614 54.131,13.637 54.124,13.658C53.07,16.993 52.155,20.702 51.375,24.687C51.892,22.041 52.468,19.52 53.103,17.154C53.178,16.874 53.893,14.213 54.14,13.587ZM63.963,4.212C63.957,4.447 63.952,4.682 63.952,4.916C63.952,4.929 64,4.929 64,4.917C64,4.929 64.048,4.929 64.048,4.916C64.048,4.674 64.043,4.432 64.036,4.191C64.034,4.191 64.012,4.198 64.003,4.2C64.004,3.829 64.004,3.458 64.005,3.087C64.002,2.946 64,2.804 64,2.663C64,2.804 63.998,2.946 63.995,3.087C63.996,3.459 63.996,3.83 63.997,4.202C63.986,4.205 63.975,4.209 63.963,4.212ZM64.005,2.676C64.004,1.784 64.002,0.892 64,0C63.998,0.892 63.996,1.785 63.995,2.677C63.997,2.669 63.998,2.661 64,2.653C64.001,2.661 64.003,2.668 64.005,2.676ZM63.997,4.202C63.999,4.201 64.001,4.201 64.003,4.2C64.002,4.439 64.001,4.678 64,4.917C63.999,4.678 63.998,4.44 63.997,4.202Z" style="fill:rgb(255,248,171);fill-opacity:0.32;"/>
    </g>
    <g transform="matrix(-1.036272,-1.179177,-0.518136,0.455343,151.941112,96.49585)">
        <ellipse cx="64" cy="64" rx="16" ry="64" style="fill:white;fill-opacity:0;"/>
        <path d="M67.612,126.36C68.405,125.638 69.045,125.499 70.49,123.776C70.887,123.303 72.497,121.165 73.456,119.596C76.768,114.176 79.059,106.87 79.996,103.755C80.135,103.293 81.069,99.656 82.022,94.807C82.057,94.628 82.155,94.61 82.607,90.188C86.932,47.873 80.065,-1.083 67.027,-8.055C65.428,-8.909 64.171,-8.847 63.978,-8.856C63.151,-4.571 63.008,-3.676 62.632,0.231C63.365,3.575 63.508,4.441 63.978,8.483L63.978,8.856C63.98,8.856 63.994,8.853 64.021,8.849C64.021,8.851 64.021,8.854 64.022,8.856L64.022,8.849C64.47,8.79 68.317,8.684 71.929,23.134C76.197,40.203 77.311,66.741 74.744,88.759C74.592,90.057 74.621,92.338 74.144,97.703C73.995,99.383 73.601,110.202 70.967,119.443C70.44,121.292 68.619,125.392 67.708,126.269C67.676,126.3 67.644,126.33 67.612,126.36ZM51.242,25.379C53.807,11.779 57.765,2.041 62.632,0.231C57.779,2.036 53.814,11.731 51.242,25.379ZM51.242,25.379C49.443,34.911 48.328,46.341 48.063,58.268C48.337,46.276 49.452,34.871 51.242,25.379ZM48.036,68.479C47.979,65.141 47.986,61.731 48.063,58.268C47.987,61.635 47.976,65.049 48.036,68.479ZM48.036,68.479C48.149,75.06 48.512,81.361 49.088,87.237C48.883,85.138 48.705,82.974 48.555,80.751C48.278,76.67 48.108,72.562 48.036,68.479ZM54.435,115.268C52.062,108.162 50.188,98.478 49.088,87.237C50.203,98.71 52.09,108.285 54.435,115.268ZM54.435,115.268C56.806,122.368 59.675,126.895 62.769,127.833C59.734,126.877 56.843,122.438 54.435,115.268ZM67.612,126.36C65.964,127.862 64.337,128.309 62.769,127.833C64.36,128.335 65.99,127.88 67.612,126.36Z" style="fill:rgb(255,248,171);fill-opacity:0.06;"/>
    </g>
    <g transform="matrix(-1.036272,-1.179177,-0.642655,0.564771,170.451661,104.956105)">
        <ellipse cx="64" cy="64" rx="16" ry="64" style="fill:white;fill-opacity:0;"/>
        <path d="M68.283,125.677C68.702,125.214 69.746,124.557 71.389,122.148C71.552,121.909 73.757,119.212 76.721,112.494C78.174,109.2 79.253,106.086 79.685,104.82C79.788,104.519 79.815,104.536 80.206,102.188C82.335,89.397 82.789,76.804 82.815,73.296C82.931,57.522 81.559,45.173 81.096,39.81C80.189,29.299 77.521,2.176 68.035,-5.431C65.968,-7.089 64.036,-7.136 64,-7.14C64,-7.174 63.469,-5.612 63.073,-3.853C62.581,-1.668 62.422,0.168 62.405,0.315C61.75,0.594 59.86,1.372 57.583,5.366C55.599,8.819 53.874,13.752 52.454,19.687C50.639,27.214 49.388,36.072 48.686,45.438C48.505,47.817 48.359,50.234 48.25,52.677C47.668,65.699 48.108,78.288 49.307,89.326C50.626,101.676 52.943,112.59 56.223,119.929C56.358,120.231 56.495,120.527 56.633,120.816C56.835,121.24 57.04,121.646 57.247,122.033C59.63,126.506 62.332,128.686 65.178,127.83C66.232,127.526 67.274,126.807 68.283,125.677Z" style="fill:rgb(255,248,171);fill-opacity:0.06;"/>
    </g>
    <g transform="matrix(0.583811,0.664321,-0.642655,0.564771,82.187678,4.720656)">
        <ellipse cx="64" cy="64" rx="16" ry="64" style="fill:white;fill-opacity:0;"/>
        <path d="M53.026,110.56C55.224,118.827 57.968,124.453 60.912,126.796C58.02,124.521 55.273,119.051 53.026,110.56ZM69.682,123.84C66.777,128.263 63.751,129.056 60.912,126.796C63.809,129.077 66.852,128.149 69.682,123.84ZM64.986,-7.073C69.336,-6.63 75.43,-3.938 80.269,10.906C86.38,29.65 88.432,60.987 85.761,88.182C85.709,88.714 85.662,89.191 84.141,94.657C83.934,95.403 83.711,96.713 81.339,102.522C77.714,111.4 75.166,115.238 73.95,117.461C71.639,121.685 70.187,123.072 69.682,123.84C69.86,123.569 70.287,122.92 71.119,120.023C72.222,116.187 72.299,114.107 72.395,112.802C73.018,104.406 72.214,95.628 72.204,95.252C72.194,94.901 72.214,92.153 71.991,87.436C71.948,86.543 73.545,74.226 72.968,56.088C72.032,26.682 66.3,9.795 62.905,6.877C63.441,5.977 63.516,5.904 63.87,4.949L63.927,4.748C63.952,4.635 63.975,4.529 63.993,4.416C63.879,3.964 63.631,3.214 63.093,2.423C62.446,1.469 62.386,1.528 61.546,0.75C61.493,0.307 60.695,-3.173 63.482,-6.558C64.838,-8.205 65.11,-8.113 64.986,-7.073ZM61.546,0.75C57.148,3.618 53.615,12.825 51.261,25.266C53.592,12.885 57.101,3.649 61.546,0.75ZM48.123,72.057C47.593,55.292 48.764,38.46 51.261,25.266C48.759,38.556 47.613,55.469 48.123,72.057ZM48.123,72.057C48.286,77.233 48.612,82.403 49.111,87.457C49.522,91.625 50.031,95.528 50.625,99.14C49.227,90.691 48.411,81.426 48.123,72.057ZM53.026,110.56C52.127,107.18 51.319,103.359 50.625,99.14C50.973,101.244 51.358,103.298 51.779,105.29C52.174,107.159 52.59,108.916 53.026,110.56ZM63.994,4.523C63.994,4.695 63.994,4.867 63.994,5.039C63.982,5.739 63.958,6.439 63.958,7.14C63.958,7.154 64,7.154 64,7.14C64,7.155 64.042,7.15 64.042,7.136C64.042,6.386 64.014,5.636 64.004,4.886C64.004,4.753 64.004,4.62 64.004,4.487L64,4.5C64,4.498 64,4.496 64,4.494L64.004,4.481C64.004,4.474 64.004,4.468 64.004,4.462C64.003,4.457 63.996,4.43 63.994,4.421C63.994,4.453 63.994,4.484 63.994,4.516L64,4.495C64,4.498 64,4.5 64,4.502L63.994,4.523ZM64.004,4.391C64.004,2.927 64.002,1.464 64,0C64,1.469 63.995,2.939 63.994,4.408C63.996,4.395 63.998,4.381 64,4.368L64.004,4.391ZM64,4.502L64,4.5C64.001,4.629 64.002,4.757 64.004,4.886C64.003,5.637 64.002,6.389 64,7.14C63.996,6.44 63.994,5.739 63.994,5.039C63.997,4.86 63.999,4.681 64,4.502ZM64,4.446C64,4.462 64,4.478 64,4.494L64,4.495C64,4.479 64,4.462 64,4.446Z" style="fill:rgb(255,248,171);fill-opacity:0.13;"/>
    </g>
</svg>
