<?xml version="1.0" encoding="UTF-8" standalone="no"?>
<!DOCTYPE svg PUBLIC "-//W3C//DTD SVG 1.1//EN" "http://www.w3.org/Graphics/SVG/1.1/DTD/svg11.dtd">
<svg width="100%" height="100%" viewBox="0 0 128 128" version="1.1" xmlns="http://www.w3.org/2000/svg" xmlns:xlink="http://www.w3.org/1999/xlink" xml:space="preserve" xmlns:serif="http://www.serif.com/" style="fill-rule:evenodd;clip-rule:evenodd;stroke-linejoin:round;stroke-miterlimit:2;">
    <g transform="matrix(1.142857,0,0,1.142857,-9.142857,-9.142857)">
        <circle cx="64" cy="64" r="56" style="fill:rgb(86,59,13);"/>
        <path d="M64,8C94.907,8 120,33.093 120,64C120,94.907 94.907,120 64,120C33.093,120 8,94.907 8,64C8,33.093 33.093,8 64,8ZM64,22.583C41.142,22.583 22.583,41.142 22.583,64C22.583,86.858 41.142,105.417 64,105.417C86.858,105.417 105.417,86.858 105.417,64C105.417,41.142 86.858,22.583 64,22.583Z" style="fill:rgb(110,89,41);"/>
    </g>
    <path d="M17.833,88L13.833,57.5L29.333,36L75.667,54.5L96,21" style="fill:rgb(86,17,13);fill-opacity:0;"/>
    <path d="M33.979,51.968C33.271,53.656 32.657,55.382 31.948,57.07C31.788,57.452 31.585,57.815 31.375,58.172C31.19,58.485 31.006,58.805 30.763,59.075C30.339,59.546 29.867,59.976 29.382,60.384C29.044,60.669 28.471,60.742 28.299,61.149C28.029,61.787 28.265,62.536 28.181,63.223C27.067,72.34 26.99,72.327 25.318,81.361L24.197,87.175C23.494,88.797 22.936,90.496 22.042,92.021C21.657,92.678 21.041,93.19 20.417,93.626C20.399,93.638 18.667,94.368 18.658,94.367C17.984,94.287 17.28,94.338 16.637,94.121C15.903,93.873 15.145,93.551 14.603,92.997C12.658,91.01 12.382,91.161 11.363,88.576C5.649,74.062 5.55,74.092 0.938,59.191C0.414,57.501 0.394,57.094 0.385,56.906C0.236,53.9 0.3,53.884 1.125,50.987C1.136,50.951 2.068,49.17 2.132,49.064C2.759,48.049 5.6,43.443 10.841,36.954C13.201,34.032 15.613,31.151 18.001,28.253C18.354,27.824 20.259,25.513 23.69,24.285C24.308,24.064 27.808,22.812 31.883,24.275C32.505,24.498 33.1,24.794 33.685,25.101C34.96,25.769 34.831,25.991 49.216,34.176C51.229,35.321 53.271,36.418 55.339,37.462C56.948,38.274 58.508,39.253 60.244,39.74C60.949,39.938 61.743,39.727 62.422,39.451C62.923,39.247 62.866,39.153 68.043,35.677C69.37,35.778 70.482,36.897 71.808,36.998C73.67,37.139 75.552,36.781 77.376,36.384C79.57,35.907 81.736,35.248 83.81,34.389C85.304,33.771 86.715,32.935 88.018,31.978C88.33,31.749 88.393,31.296 88.519,30.93C88.736,30.303 88.911,29.661 89.044,29.012C89.382,27.351 89.754,25.691 89.932,24.006C90.135,22.082 90.008,20.134 90.185,18.207C90.204,17.998 90.403,17.848 90.512,17.669C90.715,17.333 91.886,15.404 94.477,14.771C95.275,14.575 96.126,14.527 96.938,14.651C99.607,15.055 100.964,16.916 101.199,17.238C102.741,19.351 102.407,21.555 102.349,21.937C102.222,22.772 101.821,23.544 101.494,24.323C101.374,24.607 101.253,24.919 101.014,25.113C99.099,26.662 96.999,27.972 95.077,29.512C93.483,30.788 91.982,32.177 90.474,33.554C90.25,33.758 88.188,35.642 87.972,36.4C87.324,38.671 86.899,41.003 86.508,43.332C86.497,43.402 84.212,59.607 84.204,59.682C84.129,60.328 84.205,60.989 84.106,61.632C83.756,63.907 82.753,65.289 82.555,65.563C81.127,67.532 79.799,68.426 79.513,68.618C79.349,68.729 77.461,68.148 77.286,68.094C76.776,67.937 75.047,66.515 74.863,66.364C74.776,66.293 73.444,64.775 73.358,64.647C72.997,64.112 72.739,63.514 72.419,62.954C72.398,62.917 70.42,61.011 70.383,60.992C68.785,60.182 67.006,59.791 65.289,59.278C63.161,58.643 61.015,58.067 58.855,57.55C53.988,56.386 49.096,55.333 44.213,54.237C40.804,53.472 37.389,52.733 33.979,51.968Z" style="fill:rgb(131,108,74);fill-opacity:0.16;"/>
    <g transform="matrix(1.142857,0,0,1.142857,-9.142857,-9.142857)">
        <circle cx="64" cy="64" r="56" style="fill:rgb(81,67,0);fill-opacity:0;"/>
        <path d="M64,8C94.907,8 120,33.093 120,64C120,94.907 94.907,120 64,120C33.093,120 8,94.907 8,64C8,33.093 33.093,8 64,8ZM64,15.292C37.117,15.292 15.292,37.117 15.292,64C15.292,90.883 37.117,112.708 64,112.708C90.883,112.708 112.708,90.883 112.708,64C112.708,37.117 90.883,15.292 64,15.292Z" style="fill:rgb(131,115,74);"/>
    </g>
    <path d="M61.833,116L80,99.333L109.833,76L43,114.333" style="fill:rgb(86,52,13);fill-opacity:0;"/>
    <path d="M60.218,106.596C59.44,106.738 58.666,106.899 57.898,107.088C57.166,107.267 55.339,109.221 55.141,109.433C53.805,110.862 52.458,112.284 51.221,113.8C49.725,115.633 48.455,117.643 46.951,119.469C46.906,119.523 46.741,119.723 46.186,119.908C45.384,120.173 44.618,120.597 43.78,120.703C43.396,120.752 41.185,121.032 39.111,119.438C38.794,119.195 36.969,117.793 36.63,115.113C36.581,114.729 36.302,112.518 37.895,110.444C38.41,109.774 39.135,109.294 39.797,108.769C40.027,108.586 40.272,108.377 40.562,108.33C42.898,107.953 45.274,107.872 47.611,107.507C49.544,107.204 51.452,106.76 53.36,106.328C53.643,106.264 56.252,105.674 56.777,105.132C58.353,103.506 59.762,101.722 61.14,99.925C67.742,91.317 67.274,90.975 73.868,82.357C76.65,78.722 75.908,77.066 80.484,77.021C82.412,77.002 83.482,77.117 84.454,77.233C84.924,76.877 85.399,76.527 85.872,76.177C88.157,74.487 88.934,73.976 89.208,73.796C95.458,69.687 95.54,69.82 101.788,65.713L103.894,68.844C104.316,68.515 104.734,68.179 105.17,67.869C106.64,66.824 107.764,66.459 108.007,66.38C112.327,64.977 115.773,67.001 116.352,67.342C119.707,69.312 120.905,72.456 121.116,73.01C121.342,73.604 122.575,76.84 121.309,80.951C121.296,80.993 120.512,82.87 120.498,82.894C119.384,84.739 119.392,84.754 117.879,86.287C116.84,87.339 110.518,93.745 104.336,98.863C103.398,99.64 102.461,100.422 101.476,101.14C99.862,102.318 98.225,103.467 96.544,104.548C94.669,105.753 92.741,106.875 90.813,107.992C90.03,108.446 89.202,108.818 88.412,109.259C85.807,110.715 83.263,112.28 80.629,113.682C77.72,115.231 74.751,116.664 71.789,118.109C71.706,118.15 66.171,120.734 66.165,120.735C64.439,121.098 62.734,121.626 60.977,121.774C60.217,121.838 59.442,121.624 58.726,121.36C58.706,121.353 57.1,120.341 57.096,120.333C56.801,119.765 56.387,119.243 56.217,118.626C56.014,117.889 55.865,117.097 55.995,116.344C56.615,112.762 57.384,111.45 57.608,111.069C58.481,109.58 59.331,108.078 60.218,106.596Z" style="fill:rgb(131,112,74);fill-opacity:0.16;"/>
    <path d="M44.667,108.667L96,80L114.667,49.5" style="fill:rgb(86,64,13);fill-opacity:0;"/>
    <path d="M111.862,82.155C110.328,82.545 108.82,83.031 107.287,83.422C106.232,83.691 105.148,83.843 104.098,84.133C103.833,84.206 103.627,84.429 103.364,84.507C103.082,84.591 102.732,84.449 102.488,84.613C102.257,84.768 102.256,85.12 102.104,85.354C101.91,85.653 101.661,85.915 101.456,86.207C101.385,86.307 101.352,86.43 101.279,86.527C100.971,86.938 100.671,87.357 100.315,87.726C100.032,88.019 99.675,88.231 99.371,88.502C96.728,90.858 94.109,93.241 91.475,95.606C90.808,96.205 85.487,100.983 83.023,102.965C82.424,103.446 77.874,107.105 75.139,108.434C71.563,110.171 68.71,110.865 68.13,111.006C65.41,111.667 62.672,112.257 59.917,112.748C57.452,113.187 54.963,113.479 52.48,113.792C52.407,113.802 47.796,114.274 47.787,114.273C45.972,114.128 44.097,114.304 42.345,113.809C40.468,113.277 40.719,112.809 39.056,111.788C40.194,108.99 40.393,105.868 41.531,103.069C42.075,101.729 43.18,100.692 44.039,99.528C45.38,97.713 46.703,95.882 48.131,94.135C52.671,88.582 54.844,86.784 55.511,86.233C56.297,85.583 57.135,84.996 57.991,84.442C60.192,83.016 65.234,81.319 65.884,81.101C67.491,80.56 69.118,80.081 70.745,79.604C72.438,79.106 74.144,78.654 75.843,78.177C82.702,76.255 82.767,76.476 89.494,74.143C89.706,74.069 89.956,74.033 90.111,73.871C90.644,73.312 91.254,72.753 91.515,72.025C91.745,71.383 91.6,70.654 91.506,69.978C91.35,68.864 90.999,67.786 90.768,66.685C90.441,65.129 90.158,63.564 89.831,62.008C92.933,61.21 96.045,60.448 99.148,59.65C101.231,59.114 103.339,58.658 105.389,58.005C106.653,57.603 107.909,57.135 109.068,56.489C109.287,56.366 109.303,56.038 109.359,55.793C109.455,55.363 109.503,54.922 109.519,54.482C109.562,53.301 109.619,52.114 109.536,50.935C109.431,49.458 109.062,48.009 108.955,46.533C108.945,46.383 109.112,46.277 109.191,46.149C109.396,45.813 110.573,43.89 113.166,43.265C113.965,43.073 114.816,43.028 115.627,43.155C118.296,43.57 119.646,45.434 119.88,45.757C120.107,46.071 121.414,47.876 121.012,50.461C120.882,51.295 120.464,52.059 120.148,52.843C120.082,53.008 120.029,53.219 119.869,53.298C118.434,54.011 116.884,54.477 115.444,55.18C114.3,55.737 113.216,56.41 112.13,57.073C111.977,57.166 110.499,58.069 110.45,58.549C110.298,60.037 110.366,61.544 110.454,63.037C110.6,65.514 110.97,67.974 111.153,70.449C111.44,74.347 111.575,78.256 111.862,82.155Z" style="fill:rgb(131,123,74);fill-opacity:0.16;"/>
</svg>
